<svg xmlns="http://www.w3.org/2000/svg" viewBox="0 0 64 64">
  <defs>
    <linearGradient id="g" x1="0" y1="0" x2="64" y2="64" gradientUnits="userSpaceOnUse">
      <stop offset="0" stop-color="#F97316"/>
      <stop offset="1" stop-color="#EA580C"/>
    </linearGradient>
  </defs>
  <rect width="64" height="64" rx="16" fill="url(#g)"/>
  <path d="M36 8c-8.5 0-15.5 7-15.5 15.5 0 3.4 1.2 6.5 3.2 8.9l-4.4 9.1c-.8 1.4.5 3 1.9 2.3l9.9-4.1c1.5.3 3.1.5 4.9.5 8.5 0 15.5-7 15.5-15.5S44.5 8 36 8Z" fill="#fff"/>
  <path d="M25.2 23.2c-1.8-5.5.4-10.1 5.4-11.4 2.6-.6 5.3.3 6.7 2.4" stroke="#F97316" stroke-width="4.8" stroke-linecap="round" fill="none"/>
  <path d="M29.2 20l11.2 13.2" stroke="#F97316" stroke-width="5.2" stroke-linecap="round"/>
</svg>
